<svg xmlns="http://www.w3.org/2000/svg" xmlns:xlink="http://www.w3.org/1999/xlink" width="106" height="149" viewBox="0 0 106 149">
    <defs>
        <path id="0o4qvtquka" d="M0.148 0.124L18.603 0.124 18.603 20 0.148 20z"/>
        <path id="6fi8rwcjcc" d="M0.124 0.124L17.643 0.124 17.643 20 0.124 20z"/>
        <path id="5ehpg8n7fe" d="M0.047 0.124L17.566 0.124 17.566 20 0.047 20z"/>
    </defs>
    <g fill="none" fill-rule="evenodd">
        <g>
            <g>
                <path fill="#FFF" d="M83.382 37.956l-1.375 13.127c-.15 1.435-1.358 2.524-2.797 2.524h-5.997c-1.678 0-2.47-1.308-2.283-2.979l.956-13.28c.16-1.425 1.364-2.504 2.796-2.504h5.903c1.67 0 2.971 1.45 2.797 3.112zm-3.57 25.909l-1.375 13.128c-.15 1.435-1.357 2.523-2.797 2.523h-5.998c-1.676 0-2.468-1.307-2.282-2.977l.957-13.282c.159-1.425 1.362-2.503 2.795-2.503h5.903c1.67 0 2.972 1.448 2.797 3.111zm-3.57 25.91l-1.375 13.128c-.15 1.434-1.357 2.523-2.797 2.523h-5.997c-1.677 0-2.47-1.307-2.283-2.978l.957-13.28c.16-1.426 1.362-2.504 2.795-2.504h5.903c1.67 0 2.971 1.448 2.797 3.112zm-35.314 15.651H34.93c-1.439 0-2.646-1.09-2.796-2.523l-1.375-13.127c-.175-1.663 1.127-3.112 2.797-3.112h5.904c1.432 0 2.636 1.078 2.795 2.504l.956 13.28c.187 1.67-.605 2.978-2.282 2.978zM28.562 76.993l-1.374-13.128c-.175-1.663 1.127-3.11 2.797-3.11h5.904c1.432 0 2.636 1.077 2.795 2.502l.956 13.282c.187 1.67-.605 2.977-2.283 2.977H31.36c-1.439 0-2.647-1.088-2.797-2.523zm-3.569-25.91l-1.375-13.127c-.174-1.663 1.127-3.112 2.797-3.112h5.904c1.432 0 2.636 1.079 2.795 2.504l.956 13.28c.187 1.67-.605 2.979-2.282 2.979h-5.997c-1.44 0-2.648-1.089-2.798-2.524zM95 33.29h-.05c-.48-1.992-1.52-3.834-3.06-5.358-1.071-1.057-2.318-1.901-3.683-2.505.301-1.209.395-2.468.267-3.734-.55-5.408-5.142-9.757-10.921-10.342-1.132-.114-2.256-.083-3.346.082 0-.133-.004-.265-.01-.398C73.934 5.166 68.81.328 62.531.016c-3.438-.169-6.653.975-9.031 3.023C51.123.992 47.905-.153 44.47.016c-6.36.315-11.487 5.22-11.672 11.17-.002.08-.004.161-.004.242-.659-.099-1.333-.15-2.01-.147-3.277.007-6.488 1.294-8.809 3.532-2.322 2.239-3.597 5.279-3.499 8.34.025.773.13 1.535.315 2.276-1.293.573-2.48 1.36-3.511 2.34-1.628 1.546-2.73 3.45-3.23 5.52H12l.02.126-.02.084h.033L23.997 109h59.006l11.963-75.501H95l-.02-.084.02-.126z" transform="translate(-135 -332) translate(135 332)"/>
                <g>
                    <path fill="#FFF" d="M0 .35h4.914V3.74h.104C5.803 1.486 7.807 0 10.351 0c2.7 0 4.583 1.399 5.21 3.846h.105C16.502 1.486 18.732 0 21.468 0c3.66 0 6.117 2.517 6.117 6.294V19.09h-5.089V7.57c0-2.168-1.08-3.357-3.05-3.357-1.933 0-3.205 1.416-3.205 3.497v11.38h-4.897V7.414c0-2.011-1.133-3.2-3.014-3.2-1.935 0-3.242 1.469-3.242 3.567v11.31H0V.35z" transform="translate(-135 -332) translate(135 332) translate(0 129)"/>
                    <g transform="translate(-135 -332) translate(135 332) translate(0 129) translate(29.364)">
                        <mask id="yoa07qc2cb" fill="#fff">
                            <use xlink:href="#0o4qvtquka"/>
                        </mask>
                        <path fill="#FFF" d="M13.442 10.062c0-3.787-1.6-5.974-4.067-5.974-2.468 0-4.084 2.187-4.084 5.974 0 3.822 1.582 5.973 4.084 5.973 2.485 0 4.067-2.151 4.067-5.973M.148 10.044c0-6.17 3.649-9.92 9.227-9.92s9.228 3.733 9.228 9.92c0 6.276-3.597 9.956-9.228 9.956-5.63 0-9.227-3.698-9.227-9.956" mask="url(#yoa07qc2cb)"/>
                    </g>
                    <path fill="#FFF" d="M60.305 20L54.536 20 48.051 0.909 53.522 0.909 57.42 15.405 57.525 15.405 61.406 0.909 66.737 0.909z" transform="translate(-135 -332) translate(135 332) translate(0 129)"/>
                    <g transform="translate(-135 -332) translate(135 332) translate(0 129) translate(67.627)">
                        <mask id="rfiiwajpbd" fill="#fff">
                            <use xlink:href="#6fi8rwcjcc"/>
                        </mask>
                        <path fill="#FFF" d="M5.076 8.07h7.769c-.102-2.435-1.622-4.106-3.842-4.106-2.186 0-3.757 1.724-3.927 4.107zm12.413 5.69c-.546 3.733-3.825 6.24-8.35 6.24-5.634 0-9.015-3.751-9.015-9.85C.124 4.07 3.539.124 8.952.124c5.327 0 8.69 3.752 8.69 9.547v1.583H5.025v.32c0 2.72 1.657 4.587 4.2 4.587 1.828 0 3.228-.942 3.69-2.4h4.575z" mask="url(#rfiiwajpbd)"/>
                    </g>
                    <g transform="translate(-135 -332) translate(135 332) translate(0 129) translate(87.203)">
                        <mask id="1fxiw9kkkf" fill="#fff">
                            <use xlink:href="#5ehpg8n7fe"/>
                        </mask>
                        <path fill="#FFF" d="M4.999 8.07h7.769c-.102-2.435-1.622-4.106-3.842-4.106-2.186 0-3.757 1.724-3.927 4.107zm12.414 5.69c-.547 3.733-3.826 6.24-8.35 6.24-5.635 0-9.016-3.751-9.016-9.85C.047 4.07 3.462.124 8.875.124c5.327 0 8.691 3.752 8.691 9.547v1.583H4.947v.32c0 2.72 1.657 4.587 4.2 4.587 1.828 0 3.228-.942 3.69-2.4h4.576z" mask="url(#1fxiw9kkkf)"/>
                    </g>
                </g>
            </g>
        </g>
    </g>
</svg>
